<svg id="Layer_1" data-name="Layer 1" xmlns="http://www.w3.org/2000/svg" viewBox="0 0 48 48"><title>checklist</title><path d="M8.82647,47.5a2.25953,2.25953,0,0,1-2.25694-2.257V8.82633A2.25952,2.25952,0,0,1,8.82647,6.56941H11.861a.77865.77865,0,0,0,.77782-.77782V4.27433a.7404.7404,0,0,1,.73956-.73969h5.38516a.78074.78074,0,0,0,.6729-.38769,5.25747,5.25747,0,0,1,9.12667-.00082.78059.78059,0,0,0,.67345.38851h5.38487a.74039.74039,0,0,1,.73957.73969V5.79159a.77866.77866,0,0,0,.77782.77782h3.03476a2.25952,2.25952,0,0,1,2.25694,2.25692V45.243A2.25953,2.25953,0,0,1,39.17353,47.5Zm0-39.45146a.77862.77862,0,0,0-.77781.77779V45.243a.7786.7786,0,0,0,.77781.77768H39.17353a.7786.7786,0,0,0,.77781-.77768V8.82633a.77862.77862,0,0,0-.77781-.77779H36.13877a.77864.77864,0,0,0-.77782.77779v1.51738a.74036.74036,0,0,1-.73957.73957H13.37833a.74037.74037,0,0,1-.73956-.73957V8.82633a.77863.77863,0,0,0-.77782-.77779Zm6.06924-3.03465a.77864.77864,0,0,0-.77781.7777V8.82633a.77865.77865,0,0,0,.77781.77782H33.104a.77864.77864,0,0,0,.77782-.77782V5.79159a.77863.77863,0,0,0-.77782-.7777H28.27348a.74106.74106,0,0,1-.69694-.49189,3.7865,3.7865,0,0,0-7.15308.00054.7421.7421,0,0,1-.69694.49135Z"/><path d="M27.03476,20.18742a.73957.73957,0,0,1,0-1.47913h7.58662a.73957.73957,0,1,1,0,1.47913Z"/><path d="M27.03476,29.29157a.73957.73957,0,0,1,0-1.47913h7.58662a.73957.73957,0,1,1,0,1.47913Z"/><path d="M27.03476,38.39585a.73964.73964,0,0,1,0-1.47927h7.58662a.73964.73964,0,0,1,0,1.47927Z"/><path d="M16.41255,23.22192a.71416.71416,0,0,1-.22812-.04425c-.00109-.00068-.06475-.037-.09454-.0526-.033-.01666-.06337-.03073-.09316-.04439-.01775-.018-.03742-.03676-.05955-.05546a.92874.92874,0,0,0-.10491-.078l-2.97685-2.97642a.73956.73956,0,1,1,1.0461-1.0457l1.7977,1.79756a.782.782,0,0,0,.55.22784c.01884,0,.03851-.00055.05791-.00218a.77429.77429,0,0,0,.56416-.30913l3.5025-4.66975a.73911.73911,0,0,1,.59477-.296.72155.72155,0,0,1,.43795.14685.73792.73792,0,0,1,.15054,1.03638l-4.49368,5.99168a.907.907,0,0,0-.09863.09712c-.01967.02309-.03662.04508-.05137.06571l-.00517.003c-.03991.02267-.07842.04465-.11558.06843-.03962.02485-.07732.05232-.115.08045a.68554.68554,0,0,1-.25434.059Z"/><path d="M16.41255,32.32607a.71134.71134,0,0,1-.22841-.0444L16.18143,32.28c-.03253-.0187-.06229-.03551-.09262-.05109-.0317-.01612-.062-.03032-.09208-.04411-.01775-.018-.03742-.03676-.05955-.05546a.93.93,0,0,0-.10491-.078l-2.97685-2.9763a.73961.73961,0,1,1,1.0461-1.04582l1.7977,1.79756a.781.781,0,0,0,.55.22784c.01884,0,.03851-.00054.05791-.00217a.77427.77427,0,0,0,.56416-.30914l3.5025-4.66975a.73718.73718,0,0,1,.59423-.29547.72564.72564,0,0,1,.43958.147.738.738,0,0,1,.14945,1.03558l-4.49368,5.99192a.87344.87344,0,0,0-.09808.09673c-.02.02321-.03688.04534-.05192.066l-.00517.003c-.03962.02253-.07842.04466-.11558.06844-.03962.02484-.07732.05231-.115.08044a.68515.68515,0,0,1-.25434.059Z"/><path d="M16.41255,41.43022a.712.712,0,0,1-.22812-.04426l-.003-.00179c-.03253-.0187-.06229-.03551-.09262-.05109-.0317-.01612-.062-.03033-.09208-.04411-.01775-.018-.03742-.03676-.05955-.05546a.90687.90687,0,0,0-.10491-.07773L12.85542,38.1792a.73961.73961,0,1,1,1.0461-1.04582l1.7977,1.79756a.78107.78107,0,0,0,.55.228c.01884,0,.03851-.00069.05791-.00232a.77366.77366,0,0,0,.56416-.309l3.5025-4.66989a.73834.73834,0,0,1,.59449-.29576.724.724,0,0,1,.43878.147.73786.73786,0,0,1,.15,1.03587l-4.49368,5.99191a.87273.87273,0,0,0-.09808.09674c-.02.02321-.03688.04534-.05192.066l-.00517.003c-.03825.02158-.07707.044-.11475.06789-.04071.02581-.07841.053-.11586.081a.68554.68554,0,0,1-.25434.059Z"/><path d="M24.00054,6.53128a.73963.73963,0,1,1,.73957-.73969A.74039.74039,0,0,1,24.00054,6.53128Z"/></svg>