<svg id="Layer_1" data-name="Layer 1" xmlns="http://www.w3.org/2000/svg" viewBox="0 0 400 400"><path d="M271.67676,301.39746h-143a24.0275,24.0275,0,0,1-24-24v-28a4,4,0,1,1,8,0v28a16.01833,16.01833,0,0,0,16,16h143a16.01833,16.01833,0,0,0,16-16v-28a4,4,0,1,1,8,0v28A24.0275,24.0275,0,0,1,271.67676,301.39746Z"/><path d="M200.17676,99.89746a4.0002,4.0002,0,0,1,4,4v144a4,4,0,0,1-8,0v-144A4.0002,4.0002,0,0,1,200.17676,99.89746Z"/><path d="M200.30176,97.89746a3.98536,3.98536,0,0,1,2.82812,1.17188l68.75,68.75a3.99957,3.99957,0,0,1-5.65625,5.65625l-65.92187-65.9209-66.17188,66.1709a3.99957,3.99957,0,0,1-5.65625-5.65625l69-69A3.9854,3.9854,0,0,1,200.30176,97.89746Z"/></svg>