<svg id="Layer_1" data-name="Layer 1" xmlns="http://www.w3.org/2000/svg" viewBox="0 0 48 48"><title>calendar 02</title><g id="Group_688" data-name="Group 688"><g id="Path_330" data-name="Path 330"><path d="M9.20522,37.17535a.97451.97451,0,1,0,0,1.949H38.792a.97451.97451,0,1,0,0-1.949H9.20522Z"/></g><g id="Path_331" data-name="Path 331"><path d="M46.52287,3.33106H37.89642V1.47481a.97447.97447,0,0,0-1.94887,0v1.84H24.97316v-1.84a.97447.97447,0,0,0-1.94887,0v1.84H12.0499v-1.84a.97447.97447,0,0,0-1.94887,0v1.84H1.47458A.97451.97451,0,0,0,.5,4.28921h0V46.51645a.97461.97461,0,0,0,.97458.97444H46.52542A.97452.97452,0,0,0,47.5,46.51645h0V4.28921A.97443.97443,0,0,0,46.52287,3.33106ZM45.5483,45.5583H2.44632V5.273H10.103V7.12911a1.949,1.949,0,1,0,1.94886,0V5.273H23.02627V7.12911a1.949,1.949,0,1,0,1.94887,0V5.273H35.94953V7.12911a1.949,1.949,0,1,0,1.94887,0V5.273h7.6567Z"/></g><g id="Path_332" data-name="Path 332"><path d="M23.99873,25.96432a5.25763,5.25763,0,0,0,3.33412-1.19025v2.28534a3.38741,3.38741,0,0,1-5.73559,2.44083.97448.97448,0,0,0-1.35041,1.392,5.33638,5.33638,0,0,0,9.03487-3.84222V20.66958a5.283,5.283,0,1,0-5.283,5.283h0Zm0-8.61711a3.33413,3.33413,0,1,1-3.33413,3.33412A3.33421,3.33421,0,0,1,23.99873,17.34721Z"/></g></g></svg>