<svg id="Layer_1" data-name="Layer 1" xmlns="http://www.w3.org/2000/svg" xmlns:xlink="http://www.w3.org/1999/xlink" viewBox="0 0 111.97625 93.66892"><defs><style>.cls-1{fill:none;}.cls-2{fill:#243642;}.cls-3{clip-path:url(#clip-path);}</style><clipPath id="clip-path"><rect class="cls-1" x="3.95483" y="2.69345" width="53.09045" height="46.5315" transform="translate(-5.85699 9.15744) rotate(-15.59859)"/></clipPath></defs><path class="cls-2" d="M80.28981,71.11275l-.50389-8.20421,6.816,3.69863-6.31212,4.50558ZM78.97218,59.54064a1.28529,1.28529,0,0,0-1.89647,1.20877L77.86418,73.587a1.28538,1.28538,0,0,0,2.03015.96794l9.87616-7.04975a1.28418,1.28418,0,0,0-.13368-2.1764L78.97218,59.54064Z"/><path class="cls-2" d="M103.12358,86.21056l-2.56759.15769-.31538-5.13487,6.41894-.39424.07886,1.28384a3.86228,3.86228,0,0,1-3.61483,4.08758ZM60.522,84.96152l-.07885-1.28384,6.41895-.39424.31537,5.13487-2.56761.1577A3.86241,3.86241,0,0,1,60.522,84.96152Zm1.56473-37.46647,2.56761-.1577.3154,5.13512-6.419.39424L58.4719,51.583a3.86285,3.86285,0,0,1,3.61478-4.08791Zm42.602,1.24934.07884,1.28376-6.419.39424-.31539-5.13512,2.56728-.15768a3.86322,3.86322,0,0,1,4.08823,3.6148ZM75.24,51.84169l-7.70272.47308-.31539-5.13512,7.70272-.47309L75.24,51.84169Zm10.27033-.63079-7.70272.47309-.31539-5.13513,7.70271-.47308.3154,5.13512Zm2.56759-.1577-.31539-5.13512,7.70272-.47309.31539,5.13512-7.70272.47309ZM60.28539,81.10984,58.70842,55.434l46.21678-2.83856,1.577,25.67585L60.28539,81.10984Zm29.68489.75433,7.70272-.47309.31537,5.13487-7.70271.47309-.31538-5.13487ZM79.7,82.495l7.70272-.47308.31537,5.13487-7.70271.47309L79.7,82.495Zm-2.56761.1577.31537,5.13488-7.70271.47309-.31538-5.13488,7.70272-.47309ZM100.44275,42.562,61.929,44.92747a6.43718,6.43718,0,0,0-6.02467,6.81318l2.05006,33.37857a6.438,6.438,0,0,0,6.81315,6.02472l38.51377-2.36546a6.43792,6.43792,0,0,0,6.02463-6.8132l-2.05006-33.37856a6.4371,6.4371,0,0,0-6.81312-6.02471Z"/><g class="cls-3"><path class="cls-2" d="M29.68158,21.76114a2.83672,2.83672,0,1,1-1.96942,3.49514,2.83674,2.83674,0,0,1,1.96942-3.49514Zm2.21906,7.94855a5.41559,5.41559,0,1,0-6.67231-3.76,5.41563,5.41563,0,0,0,6.67231,3.76Z"/><path class="cls-2" d="M49.83849,6.20079l.0044.02544,4.11985,26.02562a2.19149,2.19149,0,0,1-.33923,1.90183c-.17907.31775-.70325.598-.66858.72218l-6.1195-21.9197a5.54437,5.54437,0,0,0-6.6548-3.6977L10.499,17.54494l-.79332-4.99949a2.96569,2.96569,0,0,1,.48072-1.87456A2.96569,2.96569,0,0,1,11.9106,9.654L46.84492,4.118a2.57875,2.57875,0,0,1,2.99357,2.08283Zm1.6037,32.84589-.00014,0A2.71444,2.71444,0,0,1,49.36866,42.169L15.27812,51.68632a2.32084,2.32084,0,0,1-2.90557-1.52674q-.02952-.09454-.05073-.19133L11.039,45.3732l7.64854-9.76606a3.09463,3.09463,0,0,1,3.90194-.88857l8.4327,4.07169a6.06135,6.06135,0,0,0,4.04505.34318,5.8654,5.8654,0,0,0,2.75528-1.6394L48.079,27l3.36317,12.04666ZM5.23148,24.57109a2.60249,2.60249,0,0,1,1.55215-3.31152l34.09054-9.51734a2.96564,2.96564,0,0,1,3.47754,1.90733l2.91243,10.43213h0L35.92889,35.74693a3.288,3.288,0,0,1-3.75037.71237l-8.51206-4.11641a5.7383,5.7383,0,0,0-6.962,1.67587l-6.53234,8.24947L5.23148,24.57109ZM46.46194,1.54746,11.4828,7.163A4.83475,4.83475,0,0,0,8.114,9.24148a4.8995,4.8995,0,0,0-.89931,3.73166l.80062,5.2652-1.92507.53744a5.18075,5.18075,0,0,0-3.34256,6.48874L9.838,50.66168a4.89962,4.89962,0,0,0,5.94486,3.55987c.06323-.01573.12614-.033.18874-.05127l34.09054-9.51735a5.29211,5.29211,0,0,0,3.86377-6.29965l-.2774-.99362a6.44466,6.44466,0,0,0,2.08225-1.65227,5.35026,5.35026,0,0,0,.86465-3.85586L52.41355,5.8433a5.22213,5.22213,0,0,0-5.95161-4.29584Z"/></g></svg>